<svg width="20" height="20" viewBox="0 0 20 20" fill="none" xmlns="http://www.w3.org/2000/svg">
<path fill-rule="evenodd" clip-rule="evenodd" d="M8.33333 1.33333C7.41283 1.33333 6.66667 1.93029 6.66667 2.66667H13.3333C13.3333 1.93029 12.5872 1.33333 11.6667 1.33333H8.33333ZM15 2.66667C15 1.19391 13.5077 0 11.6667 0H8.33333C6.49233 0 5 1.19391 5 2.66667H2.5H0V4H1.66667V17.3333C1.66667 18.8061 3.159 20 5 20H15C16.841 20 18.3333 18.8061 18.3333 17.3333V4H20V2.66667H17.5H15ZM16.6667 4H14.1667H5.83333H3.33333V17.3333C3.33333 18.0697 4.0795 18.6667 5 18.6667H15C15.9205 18.6667 16.6667 18.0697 16.6667 17.3333V4ZM6.66667 13.3333V8H8.33333V13.3333H6.66667ZM11.6667 13.3333V8H13.3333V13.3333H11.6667Z" fill="#292D32"/>
</svg>
